<svg xmlns="http://www.w3.org/2000/svg" viewBox="0 0 200 130">
  <g>
    <path fill="#ffb400" d="M146.25313,123.4181 L64.8973,127.53377 C64.0716433,127.575535 63.3684584,126.940067 63.32669,126.11441 L57.47863,10.514 C57.4368884,9.68835482 58.0723559,8.98519336 58.898,8.94343 L140.25384,4.82775 C141.079497,4.78598541 141.782682,5.42145347 141.82445,6.24711 L147.67251,121.84749 C147.692566,122.243988 147.554292,122.632213 147.288106,122.92676 C147.02192,123.221307 146.649628,123.398047 146.25313,123.4181 Z"/>
    <path fill="#ffffff" d="M73.97186,17.75751 C74.0302408,18.8461907 73.2422287,19.7969729 72.1616272,19.9416604 C71.0810257,20.0863479 70.0706445,19.3763623 69.8405649,18.3106712 C69.6104854,17.2449801 70.2379563,16.1813871 71.282,15.86737 L70.80214,6.37628 C70.7882948,6.10047136 71.000469,5.86557246 71.27626,5.85138 C71.5504547,5.84200872 71.7826803,6.05176833 71.80116,6.3255 L72.28102,15.81677 C73.2240154,15.9976244 73.9218793,16.7986302 73.97186,17.75751 L73.97186,17.75751 Z M91.06463,14.86651 L90.58434,5.37481 C90.5682613,5.1005677 90.3340057,4.89062288 90.0596467,4.90456878 C89.7852876,4.91851468 89.5735277,5.15113083 89.58534,5.42559 L90.06556,14.91711 C89.0531978,15.2216376 88.4274945,16.2339927 88.6078092,17.2756745 C88.7881238,18.3173563 89.7177018,19.0604929 90.7735213,19.0070192 C91.8293409,18.9535456 92.6790801,18.1202926 92.7532268,17.0657232 C92.8273734,16.0111538 92.1025896,15.0671963 91.06464,14.86651 L91.06463,14.86651 Z M109.84832,13.91631 L109.36803,4.42461 C109.360307,4.24515959 109.256953,4.08362978 109.097254,4.00141979 C108.937556,3.91920981 108.746038,3.92894483 108.595499,4.02692446 C108.444959,4.12490409 108.358517,4.29608138 108.36903,4.47539 L108.84925,13.96678 C107.836816,14.2711874 107.210965,15.2834964 107.391156,16.3252338 C107.571347,17.3669712 108.500865,18.1102454 109.556724,18.0568965 C110.612584,18.0035477 111.462449,17.1703675 111.53672,16.1157731 C111.610991,15.0611786 110.88629,14.1171082 109.84833,13.9163 L109.84832,13.91631 Z M128.63158,12.96605 L128.15172,3.47441 C128.143997,3.29495959 128.040643,3.13342978 127.880944,3.05121979 C127.721246,2.96900981 127.529728,2.97874483 127.379189,3.07672446 C127.228649,3.17470409 127.142207,3.34588138 127.15272,3.52519 L127.63258,13.01665 C126.620194,13.3211648 125.994466,14.3335318 126.174777,15.3752335 C126.355087,16.4169352 127.284682,17.1600876 128.340521,17.1066088 C129.396359,17.0531299 130.246107,16.2198525 130.320239,15.1652632 C130.394371,14.1106738 129.669553,13.1667128 128.63158,12.96605 L128.63158,12.96605 Z M92.75769,68.89 C92.4865815,68.8896844 92.2650991,68.6733991 92.2583473,68.4023746 C92.2515955,68.13135 92.4620336,67.9043047 92.73279,67.89049 L111.26355,66.95299 C111.538009,66.9411777 111.770625,67.1529376 111.784571,67.4272967 C111.798517,67.7016557 111.588572,67.9359113 111.31433,67.95199 L92.78357,68.88949 L92.75769,68.89 Z M57.36413,92.59554 C57.0930215,92.5952244 56.8715391,92.3789391 56.8647873,92.1079146 C56.8580355,91.83689 57.0684736,91.6098447 57.33923,91.59603 L112.67223,88.79671 C112.946764,88.7864077 113.179542,88.9966665 113.19713,89.27083 C113.210975,89.5466386 112.998801,89.7815375 112.72301,89.79573 L57.39,92.59506 L57.36413,92.59554 Z M91.31482,46.82113 C91.0437115,46.8208144 90.8222291,46.6045291 90.8154773,46.3335046 C90.8087255,46.06248 91.0191636,45.8354347 91.28992,45.82162 L109.82068,44.88412 C110.095139,44.8723077 110.327755,45.0840676 110.341701,45.3584267 C110.355647,45.6327857 110.145702,45.8670413 109.87146,45.88312 L91.3407,46.82062 L91.31482,46.82113 Z M124.99206,69.5892 C124.950829,69.589133 124.909679,69.5855399 124.86906,69.57846 C124.642426,69.5285245 124.446169,69.38787 124.32606,69.1893 L122.38417,66.4061 C122.226142,66.1795776 122.281668,65.867838 122.50819,65.70981 C122.734712,65.551782 123.046452,65.6073076 123.20448,65.83383 L124.99257,68.39731 C128.45448,63.5145 131.33876,59.62192 131.36757,59.58237 C131.473982,59.438801 131.648903,59.3629077 131.826443,59.3832783 C132.003983,59.403649 132.15717,59.5171887 132.228298,59.6811283 C132.299427,59.8450679 132.277692,60.034501 132.17128,60.17807 C132.14149,60.21807 129.16786,64.23129 125.69228,69.14682 C125.544776,69.3994476 125.283551,69.5644821 124.99206,69.5892 L124.99206,69.5892 Z M132.10974,91.8782 L125.9989,92.18728 L125.97302,92.18777 C125.706899,92.1875407 125.487574,91.9789354 125.47402,91.71316 L125.16494,85.60281 C125.151095,85.3270014 125.363269,85.0921025 125.63906,85.07791 L131.74941,84.76883 C132.023975,84.758442 132.256804,84.9687468 132.27431,85.24295 L132.58388,91.3533 C132.590656,91.4857888 132.544501,91.6155393 132.455578,91.7139865 C132.366655,91.8124337 132.242253,91.8715066 132.10976,91.8782 L132.10974,91.8782 Z M131.55945,90.90457 L131.30066,85.79275 L126.18884,86.05154 L126.44763,91.16336 L131.55945,90.90457 Z M133.99207,113.19757 C134.005915,113.473379 133.793741,113.708278 133.51795,113.72247 L127.4076,114.03155 L127.38221,114.03204 C127.115805,114.0323 126.896051,113.8235 126.8827,113.55743 L126.57362,107.44659 C126.559775,107.170781 126.771949,106.935882 127.04774,106.92169 L133.15809,106.61261 C133.290734,106.605233 133.420771,106.651512 133.51893,106.74103 C133.617146,106.830059 133.676129,106.954346 133.68299,107.08673 L133.99207,113.19757 Z M132.96814,112.74884 L132.70935,107.63654 L127.59753,107.89533 L127.85632,113.00763 L132.96814,112.74884 Z M114.08093,110.64093 L58.74793,113.44025 C58.4771736,113.454065 58.2667355,113.68111 58.2734873,113.952135 C58.2802391,114.223159 58.5017215,114.439444 58.77283,114.43976 L58.79871,114.43927 L114.13171,111.63995 C114.31116,111.632227 114.47269,111.528873 114.5549,111.369174 C114.63711,111.209476 114.627375,111.017958 114.529396,110.867419 C114.431416,110.716879 114.260239,110.630437 114.08093,110.64095 L114.08093,110.64093 Z M129.96814,47.19073 C129.974916,47.3232188 129.928761,47.4529693 129.839838,47.5514165 C129.750915,47.6498637 129.626513,47.7089366 129.49402,47.71563 L123.38318,48.02471 L123.3573,48.0252 C123.091179,48.0249707 122.871854,47.8163654 122.8583,47.55059 L122.54922,41.43975 C122.535375,41.1639414 122.747549,40.9290425 123.02334,40.91485 L129.13369,40.60577 C129.266383,40.5981778 129.396588,40.6440501 129.495219,40.7331393 C129.59385,40.8222286 129.652688,40.9471114 129.65859,41.07989 L129.96814,47.19073 Z M128.94373,46.742 L128.68494,41.6297 L123.57312,41.88849 L123.83191,47.00079 L128.94373,46.742 Z"/>
    <path fill="#b0f1ec" d="M164.80571,98.41617 L157.11898,104.78917 L155.34408,94.96317 C155.213923,94.2426111 155.277621,93.5004047 155.52865,92.81256 L186.36958,8.29167 C186.738607,7.2805098 187.857466,6.75995325 188.86863,7.12897 L195.728,9.63229 C196.73916,10.0013174 197.259717,11.1201759 196.8907,12.13134 L166.04976,96.65222 C165.798731,97.340064 165.369391,97.9488284 164.80571,98.41617 L164.80571,98.41617 Z M84.11778,77.20117 L13.45772,90.76669 C12.6194992,90.9276147 11.7516827,90.7489661 11.0451805,90.270045 C10.3386783,89.7911239 9.85136353,89.051161 9.69044,88.21294 L2.05831,48.45873 C1.8973853,47.6205092 2.07603386,46.7526927 2.55495499,46.0461905 C3.03387612,45.3396883 3.77383901,44.8523735 4.61206,44.69145 L75.27211,31.12593 C76.1103308,30.9650053 76.9781473,31.1436539 77.6846495,31.622575 C78.3911517,32.1014961 78.8784665,32.841459 79.03939,33.67968 L86.67152,73.43389 C86.8324447,74.2721108 86.6537961,75.1399273 86.174875,75.8464295 C85.6959539,76.5529317 84.955991,77.0402465 84.11777,77.20117 L84.11778,77.20117 Z"/>
    <path fill="#ffffff" d="M44.38144,78.96281 L37.83486,44.863 C37.7696459,44.5233061 37.5721592,44.2234316 37.2858452,44.0293462 C36.9995312,43.8352608 36.6478434,43.7628631 36.30815,43.82808 L9.14115,49.04369 C8.80144845,49.1088971 8.50156486,49.3063824 8.30747304,49.5926995 C8.11338121,49.8790166 8.04098089,50.2307107 8.1062,50.57041 L14.65278,84.67021 C14.7179941,85.0099039 14.9154808,85.3097784 15.2017948,85.5038638 C15.4881088,85.6979492 15.8397966,85.7703469 16.17949,85.70513 L43.34649,80.48952 C43.6861895,80.4243128 43.9860713,80.226829 44.1801629,79.9405142 C44.3742544,79.6541993 44.4466562,79.3025077 44.38144,78.96281 Z"/>
    <path fill="#ffb400" d="M29.43764,80.3722 C18.40864,82.4478 16.34194,77.91915 17.17547,76.87588 C17.2084956,76.8327881 17.2476075,76.7947237 17.29158,76.76288 C19.46621,75.48678 22.06281,74.7094 23.191,74.09997 C24.0333385,73.5658071 24.3939324,72.5198428 24.05973,71.58007 C24.0484681,71.5216807 24.0652226,71.4613883 24.1049949,71.4171808 C24.1447671,71.3729732 24.2029593,71.3499611 24.26221,71.35501 C25.360589,71.3962185 26.4601452,71.3151942 27.54062,71.11343 C28.6280302,70.8703924 29.6856806,70.5094471 30.6948,70.037 C30.7472922,70.0090459 30.8098523,70.0073121 30.8638122,70.032316 C30.9177721,70.0573198 30.9568926,70.1061701 30.9695,70.16429 C31.16127,71.06562 31.60998,72.03454 32.75923,72.13951 C34.03623,72.25616 36.68432,71.95896 39.18553,72.27704 C39.2384939,72.2890228 39.2894313,72.308652 39.33674,72.33531 C40.51341,72.96673 40.39416,77.94326 29.43764,80.3722 Z"/>
    <path fill="#00d2c2" d="M33.35827,55.27251 C33.3627856,56.5916425 33.1634956,57.9035559 32.76745,59.16184 C32.6779138,59.6938282 32.4949427,60.2057748 32.227,60.674 C31.94009,61.10247 31.23251,61.508 30.80926,60.9972 C30.6958301,60.8478224 30.6378134,60.6636805 30.64513,60.47626 C30.6792954,60.1021177 30.7325581,59.7299657 30.80471,59.36126 C28.9514148,58.9815034 27.6451763,57.3163345 27.71764,55.42592 C27.0157411,56.3911828 26.2156794,57.2810913 25.33028,58.08138 C23.3783342,59.9531988 20.9904399,61.3087372 18.3827,62.02532 C18.3219867,62.03772 18.26391,62.0482833 18.20847,62.05701 C17.36893,62.18857 17.14428,61.89156 17.08608,61.69381 C17.00161,61.40743 17.19208,61.07129 17.5683,60.78188 C17.3674529,60.7754313 17.1671096,60.7579885 16.96817,60.72963 C16.2830818,60.6706139 15.6388523,60.3788083 15.14266,59.90276 C15.0246843,59.752239 14.9732516,59.5600887 15.00026,59.37076 C15.11634,58.63092 16.45426,58.24756 17.09278,58.10559 C16.06746,55.79396 17.66099,52.70071 19.81856,51.07582 C21.9761,49.45035 24.2821,49.37415 26.08856,50.83316 C26.07213,50.42895 26.11256,49.9703 26.34965,49.79097 C26.484703,49.6928216 26.6641793,49.6811461 26.81081,49.76097 C27.8205929,50.6521526 28.3875335,51.9421989 28.36117,53.28874 C28.5805714,52.9222304 28.9371023,52.6583739 29.35173,52.55566 C30.5101188,52.3477995 31.7001518,52.6783032 32.58545,53.45375 C33.0452378,53.9526446 33.3182846,54.5952347 33.35827,55.27251 L33.35827,55.27251 Z"/>
    <path fill="#666666" d="M194.19519,20.118 C194.125044,20.1180018 194.05545,20.1056044 193.98962,20.08138 L183.46814,16.24154 C183.156928,16.1280096 182.996675,15.7836875 183.110205,15.472475 C183.223735,15.1612626 183.568058,15.0010096 183.87927,15.11454 L194.40075,18.95438 C194.674064,19.054228 194.836339,19.3357927 194.785714,19.6223366 C194.73509,19.9088804 194.486161,20.1177971 194.19518,20.11795 L194.19519,20.118 Z M27.66885,61.09828 C27.80077,60.87202 27.93246,60.84234 27.97852,60.83303 C28.1844824,60.8162715 28.3896785,60.8734352 28.55731,60.99427 C28.7263837,61.1172031 28.9631019,61.0797987 29.086035,60.910725 C29.2089681,60.7416513 29.1715637,60.5049331 29.00249,60.382 C28.6625495,60.1364577 28.2406571,60.0322606 27.82549,60.09131 C27.477718,60.1732807 27.182194,60.4012561 27.01463,60.71683 C26.9092955,60.8974934 26.9703616,61.1293405 27.151025,61.234675 C27.3316884,61.3400095 27.5635355,61.2789434 27.66887,61.09828 L27.66885,61.09828 Z M28.1182,65.21079 C28.2990881,65.1101437 28.5271205,65.1689746 28.63674,65.34457 C28.7427931,65.5247307 28.6829354,65.7567428 28.50296,65.86311 C28.279252,65.9939088 28.0451824,66.1061191 27.80311,66.19861 C26.780243,66.5551313 25.6988933,66.7138252 24.61672,66.66623 C24.4093029,66.6522753 24.252033,66.4735284 24.2645988,66.2660225 C24.2771646,66.0585166 24.4548546,65.9000537 24.66244,65.91123 C25.8547886,65.9701373 27.0428915,65.7293235 28.1182,65.21079 L28.1182,65.21079 Z M25.21932,64.39593 C24.99069,64.26334 24.87574,64.19677 24.11155,58.96972 C24.04902,58.54064 24.00655,58.24433 23.99384,58.18272 C23.9424774,57.9873527 24.0517132,57.7856888 24.24341,57.72198 C24.4475286,57.6648602 24.6600803,57.7803388 24.72324,57.98267 C24.73857,58.03067 24.7406,58.03725 24.86061,58.86037 C25.01831,59.93729 25.47861,63.08954 25.68395,63.76564 C25.8786998,63.750257 26.0638634,63.6747624 26.21385,63.54959 C26.3854504,63.4302965 26.6212665,63.4726996 26.74056,63.6443 C26.8598535,63.8159004 26.8174504,64.0517165 26.64585,64.17101 C26.4989291,64.275398 26.3400676,64.3618669 26.17264,64.42858 C25.8676312,64.569306 25.5139826,64.5571903 25.21932,64.39592 L25.21932,64.39593 Z M30.59832,65.92734 C31.2369354,65.1128926 31.5088491,64.0699121 31.34916,63.04734 L31.32716,62.94384 C31.3041361,62.8345417 31.3306238,62.7206564 31.3995172,62.6327364 C31.4684106,62.5448164 31.572657,62.4918622 31.68429,62.48808 C32.2899983,62.4932265 32.8436758,62.1465002 33.10351,61.59933 C33.3441998,61.0769811 33.2698132,60.4635603 32.91125,60.01388 C32.8271587,59.9075687 32.8063938,59.7643834 32.856821,59.638564 C32.9072483,59.5127446 33.0211553,59.4235346 33.1553929,59.4047275 C33.2896304,59.3859205 33.4236677,59.4403929 33.50673,59.54751 C34.0047642,60.1725346 34.1373839,61.0134252 33.8558889,61.761392 C33.5743939,62.5093588 32.9202727,63.0541619 32.13373,63.19574 C32.2367824,64.3348277 31.9061617,65.4708476 31.20795,66.37674 L30.93083,66.74142 C30.4227547,67.267865 30.0914495,67.9396162 29.98303,68.66317 C30.0185414,69.4985562 30.1428002,70.3277966 30.35371,71.1369 C30.4007905,71.3222767 30.3020667,71.5136249 30.12371,71.58269 C30.1092545,71.5882455 30.0944656,71.5928912 30.07943,71.5966 C29.9822151,71.6212182 29.8792008,71.606171 29.7930892,71.5547745 C29.7069777,71.5033781 29.6448364,71.4198507 29.62036,71.3226 C29.3880248,70.4382251 29.2562838,69.5304455 29.22764,68.61651 C29.3406214,67.7412609 29.7267465,66.9239328 30.33108,66.28081 L30.59832,65.92734 Z M21.2394,62.51914 C21.0594248,62.4123519 21.0000192,62.1799307 21.10668,61.99988 C21.3206463,61.6390188 21.6682072,61.3770196 22.07403,61.27067 C22.4260938,61.2058705 22.7888338,61.2993069 23.06578,61.52613 C23.1749979,61.6064871 23.232857,61.7391511 23.217439,61.8738659 C23.2020211,62.0085807 23.1156842,62.1247417 22.9911347,62.1783443 C22.8665853,62.2319469 22.7228733,62.2147927 22.61444,62.13338 C22.5099946,62.0342113 22.3651652,61.989624 22.22303,62.01288 C22.0269771,62.0755823 21.8611717,62.2088146 21.75773,62.38677 C21.6509955,62.5662493 21.4191225,62.6254645 21.2394,62.51914 L21.2394,62.51914 Z M74.52288,65.8922 C75.9962106,65.7048442 77.3798788,65.081268 78.49613,64.10158 C78.6230611,63.9737289 78.6721426,63.7878727 78.6248859,63.6140216 C78.5776291,63.4401705 78.4412137,63.3047366 78.2670258,63.2587366 C78.092838,63.2127366 77.9073411,63.2631589 77.78041,63.39101 C76.8033657,64.2203375 75.6047289,64.7452002 74.33264,64.90073 C72.5008954,65.2125771 70.6521956,65.4149958 68.79637,65.50691 C66.6873749,65.6007778 64.5883011,65.8516084 62.51657,66.25732 C60.9623366,66.5297922 59.4968518,67.1734478 58.24465,68.13359 C58.0788974,68.0026688 57.9005639,67.8885163 57.71227,67.79281 C57.2149329,67.5612029 56.6776992,67.4273901 56.12983,67.39866 C53.4021264,67.2044632 50.7417575,68.3035886 48.94654,70.36642 C48.7674386,70.5784028 48.7929801,70.895194 49.0037298,71.0757447 C49.2144795,71.2562955 49.5314384,71.2329268 49.71343,71.02342 C51.2967481,69.2036024 53.6433116,68.2337525 56.04943,68.40471 C56.4665281,68.4200365 56.8764497,68.5178995 57.25549,68.69264 C57.3462976,68.7390643 57.4337238,68.7918247 57.51712,68.85053 C56.5087818,69.9667182 56.0892869,71.4948377 56.38642,72.9694 C56.5426706,73.8987268 57.2764653,74.6235687 58.20764,74.7684 C58.4352145,74.7816195 58.6629826,74.7459779 58.87564,74.66387 C59.6401235,74.294808 60.1608437,73.5582682 60.25383,72.71447 C60.4008357,71.2996648 59.9347389,69.8896596 58.97347,68.84121 C60.0896186,68.0295588 61.3759416,67.4827344 62.73488,67.24221 C64.7578511,66.8484407 66.8071669,66.6047765 68.86607,66.51321 C70.7624258,66.4198986 72.6514454,66.2125202 74.52288,65.8922 L74.52288,65.8922 Z M59.25527,72.56728 C59.16665,73.16454 58.74927,73.79143 58.26253,73.76054 C57.83524,73.73734 57.48812,73.22368 57.36682,72.72854 C57.1470501,71.5885117 57.4735829,70.4113357 58.24922,69.54742 C58.9946934,70.3675544 59.3599429,71.4639239 59.25527,72.56728 L59.25527,72.56728 Z M61.48276,42.29588 L43.30637,45.7851 C43.0329627,45.8367983 42.7692804,45.6574967 42.7168467,45.3842295 C42.6644131,45.1109622 42.8430048,44.8467985 43.11613,44.79363 L61.29253,41.30442 C61.5490676,41.2551683 61.8007935,41.4098081 61.8728221,41.660904 C61.9448507,41.9119998 61.8133762,42.1765634 61.56974,42.27079 C61.5414615,42.2814575 61.5123755,42.2898475 61.48276,42.29588 L61.48276,42.29588 Z M54.32176,47.52845 C54.5782976,47.4791983 54.8300235,47.6338381 54.9020521,47.884934 C54.9740807,48.1360298 54.8426062,48.4005934 54.59897,48.49482 C54.5706853,48.5054919 54.5415926,48.5138853 54.51197,48.51992 L44.21106,50.49735 C44.0337249,50.5318713 43.8514615,50.4689866 43.7331423,50.3324581 C43.614823,50.1959296 43.5784907,50.0065771 43.6378742,49.8359516 C43.6972578,49.6653261 43.8433017,49.5394468 44.02082,49.50588 L54.32176,47.52845 Z M17.3178,64.40393 C17.155639,63.9523939 17.1669574,63.4567236 17.34956,63.01306 C17.4300135,62.8203986 17.6511607,62.7291255 17.8440799,62.808959 C18.036999,62.8887926 18.1289828,63.1096451 18.04977,63.30282 C17.9365891,63.5746827 17.9306822,63.8793445 18.03324,64.15539 C18.2739792,64.7977282 18.9484058,65.1673081 19.61936,65.02457 C19.69081,65.0044 19.72901,64.99389 19.7669,64.98667 C19.9556755,64.9054026 20.1692372,64.9036463 20.3593237,64.9817979 C20.5494102,65.0599496 20.6999776,65.2114131 20.777,65.40196 C21.2725287,66.2514562 21.9411555,66.9872564 22.73948,67.5616 C24.0937723,68.6707798 25.9177118,69.0184892 27.58509,68.48535 C27.7800439,68.4196691 27.9917733,68.5216607 28.061932,68.7150483 C28.1320908,68.9084359 28.0350084,69.1224607 27.84329,69.19706 L27.82812,69.20291 C25.9303999,69.8212045 23.8486214,69.4350991 22.29884,68.1774 C21.4114099,67.5383109 20.6684628,66.7195566 20.11833,65.7744 C20.0992365,65.7340838 20.0735885,65.6972135 20.04243,65.66529 C20.04243,65.66108 19.93373,65.72307 19.92177,65.72768 L19.92085,65.72803 C19.91685,65.72853 19.77561,65.76503 19.77147,65.76664 C18.7282093,65.9877542 17.6814929,65.4064328 17.3178,64.40393 Z"/>
  </g>
</svg>
